<?xml version="1.0" encoding="utf-8"?>
<!-- Generator: Adobe Illustrator 22.1.0, SVG Export Plug-In . SVG Version: 6.00 Build 0)  -->
<svg version="1.1" id="Layer_1" xmlns="http://www.w3.org/2000/svg" xmlns:xlink="http://www.w3.org/1999/xlink" x="0px" y="0px"
	 viewBox="0 0 100 100" style="enable-background:new 0 0 100 100;" xml:space="preserve">
<style type="text/css">
	.st0{fill:#00ADEE;}
</style>
<g>
	<g>
		<path class="st0" d="M100,50c0-28.4-23.7-51.3-52.4-49.9C22,1.2,1.2,22,0.1,47.6C-1.3,76.3,21.6,100,50,100c0.5,0,1.1,0,1.6,0
			V82.8H39.1c-4.8,0-8.8-3.9-8.8-8.8V60.5h-10l9.8-21.8c0.5-8.4,4.3-16.1,10.7-21.7c6.4-5.6,14.7-8.4,23.2-7.7
			C79.5,10.5,91.9,23,93,38.5c0.4,6.2-0.8,12-3.5,16.9l-0.7,1.3l-2.5-1.4L87,54c2.4-4.4,3.5-9.7,3.1-15.3c-1-14-12.3-25.4-26.3-26.5
			c-7.8-0.6-15.3,1.9-21.1,7c-5.8,5.1-9.3,12.2-9.7,20l0,0.3l-8.2,18.2h8.4V74c0,3.2,2.6,5.9,5.9,5.9h12.5h2.9v2.9v17
			c10.5-0.9,20.1-5.1,27.7-11.6V60.5h2.9v25.1C94.3,76.5,100,63.9,100,50z"/>
	</g>
</g>
</svg>
