<?xml version="1.0" encoding="utf-8"?>
<!-- Generator: Adobe Illustrator 22.1.0, SVG Export Plug-In . SVG Version: 6.00 Build 0)  -->
<svg version="1.1" id="Layer_1" xmlns="http://www.w3.org/2000/svg" xmlns:xlink="http://www.w3.org/1999/xlink" x="0px" y="0px"
	 viewBox="0 0 100 100" style="enable-background:new 0 0 100 100;" xml:space="preserve">
<style type="text/css">
	.st0{fill:#FFAD00;}
</style>
<g>
	<g>
		<g>
			<path class="st0" d="M34.7,41c-2.5,0-4,1.6-4,4.2c0,1,0.3,1.7,0.8,2.2c1.4,1.3,4.6,1.4,7,1.3c0-0.1,0-0.1,0-0.2
				C38.3,43.4,37.6,41,34.7,41z"/>
		</g>
		<g>
			<path class="st0" d="M100,50c0-27.6-22.4-50-50-50S0,22.4,0,50c0,23.6,16.4,43.4,38.4,48.6v-0.4h13v1.7
				C78.4,99.2,100,77.2,100,50z M63.9,13.1l2.5,1.8l-2.6,3.5l-2.5-1.8L63.9,13.1z M43.4,7.4h3.1v4.3h-3.1V7.4z M25.9,13.1l2.6,3.5
				l-2.5,1.8l-2.6-3.5L25.9,13.1z M12.6,54l-0.9-2.9l4.1-1.3l0.9,2.9L12.6,54z M15.8,34l-4.1-1.3l0.9-2.9l4.1,1.3L15.8,34z
				 M58.5,94.8H31.3v-3.1h27.2V94.8z M58.5,88.2H31.3v-3.1h27.2V88.2z M67.5,58.2c-3.3,4.9-5.4,10.1-6.3,15.5L61,75.2l-3-0.5
				l0.2-1.5c0.9-5.9,3.2-11.5,6.8-16.8c2.7-4,4.1-8.7,4.1-13.5c0-6.7-2.7-13-7.6-17.6c-4.9-4.6-11.3-6.9-18.1-6.5
				C31,19.5,21,29.9,20.7,42.3c-0.1,5.3,1.4,10.4,4.5,14.7c4.4,6.1,6.8,13.6,6.9,21.7h8.5c-0.3-4.4-1.4-19.1-1.9-26.9
				c-3.1,0.1-7,0-9.3-2.2c-1.2-1.1-1.8-2.6-1.8-4.4c0-4.3,2.8-7.2,7-7.2c6.4,0,6.7,6.8,6.9,10.4c0,0.1,0,0.2,0,0.3h3.9v3.1h-3.7
				c0.5,8,1.6,22.9,1.9,26.9h2.4c0.3-4.7,1.8-23.8,2.1-30.3c0.2-3.6,0.5-10.4,6.9-10.4c4.2,0,7,2.9,7,7.2c0,3.9-2.4,6.3-6.5,6.4
				l-2,0v-3.1h2c3.1-0.1,3.5-1.9,3.5-3.3c0-2.6-1.5-4.2-4-4.2c-2.9,0-3.6,2.4-3.8,7.5c-0.3,6.4-1.7,25.1-2.1,30.1h11.6h0.1v3.1h-0.1
				H32h-3v-2.5c0-7.6-2.2-14.7-6.3-20.4c-3.5-4.9-5.2-10.6-5.1-16.6c0.4-14,11.6-25.6,25.5-26.5c7.6-0.5,14.9,2.1,20.4,7.3
				c5.5,5.1,8.6,12.4,8.6,19.9C72.1,48.4,70.5,53.6,67.5,58.2z M77.2,54l-4.1-1.3l0.9-2.9l4.1,1.3L77.2,54z M74,34l-0.9-2.9l4.1-1.3
				l0.9,2.9L74,34z"/>
		</g>
	</g>
</g>
</svg>
