<?xml version="1.0" encoding="utf-8"?>
<!-- Generator: Adobe Illustrator 22.1.0, SVG Export Plug-In . SVG Version: 6.00 Build 0)  -->
<svg version="1.1" id="Layer_1" xmlns="http://www.w3.org/2000/svg" xmlns:xlink="http://www.w3.org/1999/xlink" x="0px" y="0px"
	 viewBox="0 0 100 100" style="enable-background:new 0 0 100 100;" xml:space="preserve">
<style type="text/css">
	.st0{fill:#FF0000;}
</style>
<g>
	<g>
		<g>
			<path class="st0" d="M69.2,47.9c-1.7,0-2.8,0.9-3.6,2.7c-0.7,1.8-1.1,4.7-1.1,8.8c0,4.1,0.4,7,1.1,8.8c0.7,1.8,1.9,2.7,3.6,2.7
				c1.6,0,2.8-0.9,3.6-2.7c0.7-1.8,1.1-4.7,1.1-8.7c0-4.1-0.4-7-1.1-8.8C72,48.8,70.8,47.9,69.2,47.9z"/>
		</g>
		<g>
			<path class="st0" d="M44.5,47.9c-1.7,0-2.8,0.9-3.6,2.7c-0.7,1.8-1.1,4.7-1.1,8.8c0,4.1,0.4,7,1.1,8.8c0.7,1.8,1.9,2.7,3.6,2.7
				c1.6,0,2.8-0.9,3.6-2.7c0.7-1.8,1.1-4.7,1.1-8.7c0-4.1-0.4-7-1.1-8.8C47.3,48.8,46.1,47.9,44.5,47.9z"/>
		</g>
		<g>
			<path class="st0" d="M50,0C22.4,0,0,22.4,0,50s22.4,50,50,50c27.6,0,50-22.4,50-50S77.6,0,50,0z M23.4,23.1
				c14.3-14.3,37.5-14.3,51.8,0c0.6,0.6,0.6,1.5,0,2.1c-0.3,0.3-0.7,0.4-1.1,0.4c-0.4,0-0.8-0.1-1.1-0.4
				c-13.1-13.1-34.4-13.1-47.5,0c-0.6,0.6-1.5,0.6-2.1,0C22.8,24.6,22.8,23.7,23.4,23.1z M30.4,76h-7V56.8l0.1-3.2l0.1-3.5
				c-1.2,1.2-2,1.9-2.4,2.3l-3.8,3.1l-3.4-4.2l10.7-8.5h5.8V76z M31.4,30.9c-0.4,0-0.8-0.1-1.1-0.4c-0.6-0.6-0.6-1.5,0-2.1
				c5.1-5.1,11.8-7.8,18.9-7.8c7.1,0,13.9,2.8,18.9,7.8c0.6,0.6,0.6,1.5,0,2.1c-0.6,0.6-1.5,0.6-2.1,0c-4.5-4.5-10.4-7-16.8-7
				c-6.3,0-12.3,2.5-16.8,7C32.2,30.7,31.8,30.9,31.4,30.9z M62.3,35c-0.3,0.3-0.7,0.4-1.1,0.4s-0.8-0.1-1.1-0.4c-6-6-15.9-6-21.9,0
				c-0.6,0.6-1.5,0.6-2.1,0c-0.6-0.6-0.6-1.5,0-2.1c3.5-3.5,8.1-5.4,13.1-5.4c4.9,0,9.6,1.9,13.1,5.4C62.9,33.5,62.9,34.5,62.3,35z
				 M53.3,72.3c-1.9,2.8-4.8,4.2-8.8,4.2c-3.8,0-6.7-1.4-8.7-4.3c-2-2.9-2.9-7.1-2.9-12.8c0-5.9,0.9-10.2,2.8-13
				c1.9-2.8,4.8-4.2,8.8-4.2c3.8,0,6.7,1.5,8.7,4.4c2,2.9,2.9,7.2,2.9,12.8C56.1,65.2,55.2,69.5,53.3,72.3z M78,72.3
				c-1.9,2.8-4.8,4.2-8.8,4.2c-3.8,0-6.7-1.4-8.7-4.3c-2-2.9-2.9-7.1-2.9-12.8c0-5.9,0.9-10.2,2.8-13c1.9-2.8,4.8-4.2,8.8-4.2
				c3.8,0,6.7,1.5,8.7,4.4c2,2.9,2.9,7.2,2.9,12.8C80.9,65.2,79.9,69.5,78,72.3z"/>
		</g>
	</g>
</g>
</svg>
