<?xml version="1.0" encoding="utf-8"?>
<!-- Generator: Adobe Illustrator 22.1.0, SVG Export Plug-In . SVG Version: 6.00 Build 0)  -->
<svg version="1.1" id="Layer_1" xmlns="http://www.w3.org/2000/svg" xmlns:xlink="http://www.w3.org/1999/xlink" x="0px" y="0px"
	 viewBox="0 0 100 100" style="enable-background:new 0 0 100 100;" xml:space="preserve">
<style type="text/css">
	.st0{fill:#91C73E;}
</style>
<g>
	<path class="st0" d="M50,46.7c-1.7,0-3.3,1.5-3.3,3.3c0,1.8,1.5,3.3,3.3,3.3c1.8,0,3.3-1.4,3.3-3.2C53.3,48.3,51.8,46.7,50,46.7z"
		/>
</g>
<g>
	<path class="st0" d="M51.1,53.4c0-2.2,0-4.4,0-6.8C48,48.7,48.1,51.8,51.1,53.4z"/>
</g>
<g>
	<path class="st0" d="M50.8,25.5c-13.8-0.3-25,10.3-25.3,23.9C25.2,63,36,74.2,49.7,74.5C63,74.8,74.2,63.8,74.5,50.4
		C74.8,37.1,64,25.8,50.8,25.5z M34.9,47.3c-0.8,0.9-1.7,1.5-2.7,0.5C31.1,47,31.6,46,32.3,45c1.7-2.1,3.9-3.3,6.7-3.2
		c2.7,0,4.9,1.1,6.5,3.2c0.5,0.7,0.6,2.2,0.2,2.8c-0.8,1.1-1.8,0.4-2.7-0.5C40.4,44.5,37.6,44.5,34.9,47.3z M58.4,62.1
		c-1.5,0.3-2,1.3-2.6,2.4c-1.3,2.3-3.4,3.5-6,3.4c-2.7-0.1-4.6-1.4-5.9-3.7c-0.4-0.7-1.2-1.2-1.8-1.8c-0.6-0.7-1.8-1.5-1.8-2.1
		c0.1-1.4,1.4-1.6,2.6-1.2c0.1,0,0.3,0,0.5-0.1c2.1-5.1,9.3-6.8,13,0.1c0.4-0.1,0.9-0.3,1.2-0.2c0.7,0.3,1.7,0.8,1.8,1.3
		C59.7,60.8,59,62,58.4,62.1z M67.8,47.9c-0.9-0.2-2,0-2.6-0.5c-3.1-3-5.3-2.9-8.5,0.1c-0.5,0.5-1.6,0.4-2.4,0.5
		c-0.1-0.9-0.5-2-0.1-2.6c1.5-2.4,3.9-3.5,6.7-3.6c2.9,0,5.2,1.1,6.8,3.5C68.2,45.9,67.8,47,67.8,47.9z"/>
</g>
<g>
	<path class="st0" d="M50,0C22.4,0,0,22.4,0,50c0,27.6,22.4,50,50,50c27.6,0,50-22.4,50-50C100,22.4,77.6,0,50,0z M78.7,57.7
		c-1.5,0.4-2,1.3-2.4,2.6c-4,11.1-14.6,18.5-26.3,18.5c-11.8,0-22.4-7.5-26.3-18.7c-0.4-1.2-1-1.8-2.2-2.2c-3.2-1-5.1-3.7-5.1-7
		c0-3.2,1.9-5.9,5-7.1c0.8-0.3,1.7-0.9,2-1.5c3.8-10.4,11.1-16.6,22.1-19.1c-1.6-2.9-2.1-5.7-1-8.6c1.4-3.9,5.4-6,9.3-4.9
		c2.7,0.7,4.5,3.2,4.4,5.9c-0.1,2.3-1.4,4.1-3.5,4.5c-0.8,0.2-1.8,0.2-2.5-0.1c-0.6-0.3-1.3-1.3-1.2-1.8c0.1-0.6,1.1-1,1.8-1.4
		c0.6-0.4,1.3-0.6,2-0.9c-0.5-0.9-0.8-2.1-1.5-2.6c-2-1.2-4.8,0.3-5.6,2.7c-1.2,3.6,1.1,6.7,4.8,7.1c11.6,1.3,19.6,7.5,23.9,18.3
		c0.5,1.3,0.9,2.1,2.4,2.6c3.1,0.9,5,3.8,5,7C83.6,54,81.7,56.8,78.7,57.7z"/>
</g>
<g>
	<path class="st0" d="M48.9,46.6c0,2.3,0,4.5,0,6.7C51.9,51.4,51.9,48.4,48.9,46.6z"/>
</g>
</svg>
